HIERARCHY
ROOT pelvis
{
  OFFSET 0 0 0
  CHANNELS 6 Xposition Yposition Zposition Zrotation Xrotation Yrotation
  JOINT pelvis_right_femur
  {
    OFFSET -11.43119 -3.542788 0.2090856
    CHANNELS 3 Zrotation Xrotation Yrotation
    JOINT right_femur_tibia
    {
      OFFSET -1.028693 -40.73281 5
      CHANNELS 3 Zrotation Xrotation Yrotation
      JOINT right_tibia_foot
      {
        OFFSET -0.5013517 -42.05707 -5
        CHANNELS 3 Zrotation Xrotation Yrotation
        End Site
        {
          OFFSET 0 -5 10
        }
      }
    }
  }
  JOINT pelvis_left_femur
  {
    OFFSET 11.43119 -3.542788 0.2090856
    CHANNELS 3 Zrotation Xrotation Yrotation
    JOINT left_femur_tibia
    {
      OFFSET 1.028693 -40.73281 5
      CHANNELS 3 Zrotation Xrotation Yrotation
      JOINT left_tibia_foot
      {
        OFFSET 0.3200228 -42.98253 -5
        CHANNELS 3 Zrotation Xrotation Yrotation
        End Site
        {
          OFFSET 0 -5 10
        }
      }
    }
  }
  JOINT pelvis_spine1
  {
    OFFSET 0 8.64413 -3.209807
    CHANNELS 3 Zrotation Xrotation Yrotation
    JOINT spine1
    {
      OFFSET 0 29.53957 -1.762685
      CHANNELS 3 Zrotation Xrotation Yrotation
      JOINT spine2
      {
        OFFSET 0 16.36153 -0.1422377
        CHANNELS 3 Zrotation Xrotation Yrotation
        JOINT neck
        {
          OFFSET 0 11.60093 5
          CHANNELS 3 Zrotation Xrotation Yrotation
          End Site
          {
            OFFSET 0 20 0
          }
        }
      }
      JOINT right_manubrium
      {
        OFFSET -4.671311 15.89868 4
        CHANNELS 3 Zrotation Xrotation Yrotation
        JOINT right_clavicle
        {
          OFFSET -13.601 1.573642 -2.74176
          CHANNELS 3 Zrotation Xrotation Yrotation
          JOINT right_humerus
          {
            OFFSET -0.06331682 -27.72702 2.252146
            CHANNELS 3 Zrotation Xrotation Yrotation
            JOINT right_radius
            {
              OFFSET -0.5696302 -23.92083 0.4042105
              CHANNELS 3 Zrotation Xrotation Yrotation
              End Site
              {
                OFFSET 0 -15 0
              }
            }
          }
        }
      }
      JOINT left_manubrium
      {
        OFFSET 4.671311 15.89868 4
        CHANNELS 3 Zrotation Xrotation Yrotation
        JOINT left_clavicle
        {
          OFFSET 13.601 1.573642 -2.74176
          CHANNELS 3 Zrotation Xrotation Yrotation
          JOINT left_humerus
          {
            OFFSET 0.000209614 -29.01858 1.101395
            CHANNELS 3 Zrotation Xrotation Yrotation
            JOINT left_radius
            {
              OFFSET -0.2288314 -24.59216 1.790347
              CHANNELS 3 Zrotation Xrotation Yrotation
              End Site
              {
                OFFSET 0 -15 0
              }
            }
          }
        }
      }
    }
  }
}
MOTION
Frames: 17
Frame Time: 0.0416666666667
0 48.05195 0 -2.431537 -21.83705 -0.9566904 -51.40296 -60.01043 -40.32362 180 81.44616 -180 10.54344 2.767705 3.582989 62.74597 -49.46655 49.87828 180 71.92584 -180 -7.385223 -7.570992 -11.76411 -1.063082 20.59421 2.623283 7.641728 15.24091 -9.455942 -10.70365 8.481514 11.67974 6.140874 -29.04823 6.287574 20.71487 -8.728083 27.45113 -58.05 -34.58582 17.40085 -3.358066e-10 -63.65379 -1.753827e-10 20.14459 4.693912 34.36107 -26.70674 -28.89814 -3.312937 53.19448 -22.65637 -26.71354 -4.079127e-09 -71.33911 -5.483838e-09 -7.699 -6.500578 -15.83775
-0.02491761 48.06073 -0.002001893 -2.379062 -21.84373 -0.9515828 -51.58012 -59.99264 -40.39496 180 81.41434 -180 10.54498 2.757663 3.523548 62.73306 -49.49116 49.98 180 72.00551 -180 -7.380476 -7.488147 -11.85853 -0.9149488 20.61074 2.692795 7.395545 15.24339 -9.340219 -10.51463 8.549574 11.53891 6.055812 -29.13661 6.257136 20.85623 -8.92006 26.9098 -58.08528 -34.44022 16.70633 -2.672461e-10 -64.16234 -1.461483e-10 20.21305 4.861534 34.56157 -26.87507 -29.5272 -2.214335 53.63219 -21.21169 -23.80859 -3.368801e-09 -71.88808 -4.512158e-09 -4.691518 -8.556254 -13.48075
-0.02827503 48.06762 0.002212656 -2.346807 -21.8137 -0.9083678 -51.77027 -59.97553 -40.50062 180 81.38393 -180 10.55151 2.738151 3.450689 62.79135 -49.54377 50.14418 180 72.07579 -180 -7.371983 -7.412658 -11.97254 -0.7808473 20.66109 2.766392 7.138641 15.2446 -9.211142 -10.28512 8.605821 11.34409 6.011447 -29.27068 6.191296 21.00741 -9.159145 26.22765 -58.24402 -34.15785 15.92242 -2.09582e-10 -64.82621 -1.226079e-10 20.24759 4.918037 34.78199 -26.90477 -30.5109 -1.041135 54.28023 -19.49643 -20.31351 -2.599307e-09 -71.75102 -3.5133e-09 -1.505247 -10.55965 -10.72509
-0.009018972 48.07271 0.01335222 -2.346833 -21.74739 -0.8290303 -51.93822 -59.9627 -40.61958 180 81.35441 -180 10.56196 2.711179 3.365513 62.93558 -49.6176 50.36817 180 72.12227 -180 -7.360566 -7.35086 -12.1021 -0.692388 20.73774 2.825382 6.903897 15.24087 -9.094165 -9.984135 8.64557 11.08485 6.020283 -29.44019 6.084772 21.16863 -9.433596 25.41947 -58.50673 -33.74168 15.04956 -1.655356e-10 -65.61353 -1.050104e-10 20.28184 4.883878 35.00609 -26.74247 -31.83769 0.1392991 55.15385 -17.55093 -16.32638 -1.867105e-09 -70.71268 -2.588912e-09 1.755681 -12.44899 -7.505775
0.02989956 48.07635 0.03096262 -2.409494 -21.63744 -0.7324607 -52.03926 -59.95583 -40.73758 180 81.33419 -180 10.57651 2.677908 3.276364 63.18831 -49.71364 50.64336 180 72.12471 -180 -7.347403 -7.320836 -12.23244 -0.6904313 20.83202 2.861997 6.747532 15.2274 -9.011494 -9.623442 8.649059 10.82002 6.09855 -29.64447 6.009772 21.32777 -9.672381 24.62065 -58.81142 -33.26504 14.27328 -1.138366e-10 -66.42314 -7.903989e-11 20.32919 4.781905 35.21387 -26.32352 -33.40209 1.071111 56.21093 -15.66307 -12.37372 -1.069278e-09 -68.50655 -1.557664e-09 4.451673 -13.93381 -4.17297
0.08382003 48.07886 0.05388923 -2.540056 -21.49234 -0.6341212 -52.06941 -59.95616 -40.85428 -180 81.34473 180 10.59497 2.640577 3.189814 63.54785 -49.82688 50.96047 180 72.09878 -180 -7.33465 -7.326677 -12.35625 -0.7803755 20.92983 2.878405 6.687117 15.20385 -8.969854 -9.218445 8.611713 10.59668 6.240109 -29.87827 6.022836 21.48833 -9.841732 23.91784 -59.10687 -32.80183 13.67433 -4.683247e-11 -67.18418 -3.967969e-11 20.39169 4.632299 35.36902 -25.67661 -35.07691 1.660688 57.3956 -13.99421 -8.772281 -3.209296e-10 -65.27852 -5.172011e-10 6.323647 -14.99087 -0.9266052
0.1474373 48.08052 0.08057808 -2.725203 -21.32659 -0.5441468 -52.02925 -59.96123 -40.95876 -180 81.37682 180 10.61541 2.601932 3.112203 63.97796 -49.94553 51.29149 -180 72.04331 180 -7.323404 -7.364699 -12.46594 -0.9475724 21.01748 2.876481 6.719086 15.17227 -8.968796 -8.797403 8.538697 10.43347 6.429755 -30.12136 6.129249 21.64599 -9.938081 23.35406 -59.36826 -32.39215 13.26845 2.523319e-11 -67.83962 6.26986e-12 20.45598 4.430843 35.42969 -24.87963 -36.7241 1.903322 58.63065 -12.64375 -5.750556 2.20064e-10 -61.38692 3.2672e-10 7.28335 -15.66508 2.016228
0.2151903 48.08161 0.1092668 -2.951616 -21.14992 -0.4722527 -51.92352 -59.96934 -41.04318 -180 81.41698 180 10.63631 2.563914 3.047771 64.44488 -50.06056 51.61417 -180 71.95438 180 -7.313745 -7.43052 -12.55622 -1.174696 21.08887 2.856871 6.834098 15.13468 -9.004531 -8.391391 8.436328 10.33582 6.65523 -30.35589 6.315215 21.79148 -9.968437 22.95031 -59.59192 -32.05008 13.05667 9.54404e-11 -68.35508 5.385445e-11 20.50102 4.158323 35.36575 -24.0047 -38.25512 1.80615 59.86192 -11.67983 -3.44284 5.565084e-10 -57.12843 9.523109e-10 7.276333 -16.00053 4.454038
0.2823827 48.08239 0.1384333 -3.197779 -20.9767 -0.4224212 -51.77386 -59.98064 -41.10725 -180 81.4672 180 10.6567 2.528506 2.997751 64.91538 -50.16323 51.9136 -180 71.85041 180 -7.306057 -7.515078 -12.62691 -1.435799 21.13968 2.821238 7.010344 15.0956 -9.07035 -8.018863 8.317693 10.28387 6.903022 -30.56309 6.536933 21.91612 -9.958647 22.69447 -59.79023 -31.7752 12.98919 1.530602e-10 -68.71736 9.488426e-11 20.51892 3.797502 35.14658 -23.1346 -39.60999 1.445385 61.03771 -11.08638 -1.838665 7.146707e-10 -52.86078 1.34573e-09 6.465335 -16.08811 6.339894
0.3455781 48.08308 0.1668867 -3.445472 -20.81672 -0.3957612 -51.60187 -59.99275 -41.15244 -180 81.52325 180 10.67594 2.496493 2.960329 65.36095 -50.25055 52.17947 -180 71.74387 180 -7.30007 -7.60837 -12.68074 -1.704415 21.16925 2.776839 7.220348 15.05861 -9.153257 -7.689499 8.194639 10.26161 7.158333 -30.73515 6.764878 22.01453 -9.922044 22.56284 -59.96455 -31.56927 13.03156 1.990166e-10 -68.94686 1.284835e-10 20.51176 3.359132 34.78163 -22.33083 -40.76508 0.9121245 62.11229 -10.80425 -0.8343569 7.721967e-10 -48.86105 1.585434e-09 5.098155 -16.01289 7.726072
0.4026723 48.08382 0.1937686 -3.67914 -20.67646 -0.3897963 -51.43929 -60.00592 -41.19288 -180 81.59817 180 10.69448 2.467981 2.93311 65.76803 -50.32433 52.41418 -180 71.66216 180 -7.295858 -7.701928 -12.72207 -1.955988 21.18344 2.733018 7.436137 15.02775 -9.238621 -7.411928 8.077258 10.25507 7.408207 -30.87396 6.974769 22.08445 -9.87298 22.52587 -60.12616 -31.42576 13.15114 2.317174e-10 -69.07618 1.528218e-10 20.48274 2.865582 34.30891 -21.63396 -41.72557 0.3007333 63.05367 -10.74953 -0.2871289 7.703356e-10 -45.32882 1.708426e-09 3.430686 -15.83563 8.681766
0.4527485 48.08468 0.2186197 -3.891109 -20.55744 -0.4015836 -51.29347 -60.01827 -41.22724 -180 81.68147 180 10.71188 2.442808 2.912759 66.12607 -50.38487 52.61615 -180 71.60326 180 -7.292708 -7.789804 -12.7548 -2.179472 21.18462 2.692357 7.641304 15.00377 -9.319366 -7.180092 7.971051 10.24872 7.645647 -30.98047 7.149041 22.12692 -9.820908 22.54778 -60.27762 -31.33073 13.31245 2.533694e-10 -69.14219 1.690199e-10 20.43728 2.332004 33.754 -21.05151 -42.51578 -0.3167246 63.85488 -10.83489 -0.04607169 7.404646e-10 -42.32248 1.754668e-09 1.676645 -15.6059 9.329909
0.4956036 48.08569 0.2412791 -4.079177 -20.45664 -0.4283303 -51.16252 -60.02834 -41.25171 -180 81.7562 180 10.72753 2.420517 2.896925 66.43002 -50.43337 52.784 -180 71.55364 180 -7.289945 -7.869238 -12.78089 -2.371894 21.17561 2.655528 7.82768 14.98542 -9.391813 -6.985311 7.877208 10.23391 7.867106 -31.05795 7.281568 22.14382 -9.774255 22.6055 -60.41921 -31.26888 13.48916 2.620526e-10 -69.15359 1.762524e-10 20.38103 1.779453 33.14329 -20.5727 -43.16416 -0.9028351 64.52485 -10.99765 0.001155525 6.896781e-10 -39.80879 1.73205e-09 -0.03764602 -15.35397 9.767894
0.5314575 48.08683 0.2617668 -4.24464 -20.372 -0.467823 -51.04299 -60.03468 -41.26366 -180 81.81441 180 10.74124 2.400658 2.883481 66.68101 -50.47171 52.91878 -180 71.50588 180 -7.287201 -7.939082 -12.80223 -2.534339 21.15721 2.623598 7.992408 14.97176 -9.454279 -6.816618 7.795567 10.20811 8.071925 -31.11102 7.376505 22.1385 -9.729101 22.68523 -60.54424 -31.23785 13.67543 2.602578e-10 -69.12952 1.763369e-10 20.32368 1.226383 32.49716 -20.18403 -43.69424 -1.439051 65.07678 -11.19736 -0.06719253 6.291187e-10 -37.73555 1.66297e-09 -1.633753 -15.10497 10.08333
0.5611564 48.08801 0.2803814 -4.391091 -20.29725 -0.5170228 -50.93633 -60.03742 -41.26668 -180 81.85111 180 10.75338 2.38202 2.869124 66.88887 -50.50442 53.03047 -180 71.45483 180 -7.283881 -7.998717 -12.82261 -2.668374 21.13551 2.597881 8.130482 14.96146 -9.503366 -6.661357 7.724975 10.16429 8.262185 -31.14947 7.434512 22.11509 -9.691335 22.76275 -60.6593 -31.21927 13.85273 2.511863e-10 -69.09045 1.719906e-10 20.27277 0.6889549 31.84587 -19.85723 -44.16603 -1.89519 65.54322 -11.35699 -0.1173593 5.671648e-10 -35.9803 1.578384e-09 -3.018497 -14.89449 10.38514
0.5854296 48.08911 0.2973963 -4.52022 -20.23444 -0.5732004 -50.83975 -60.03705 -41.25984 -180 81.8756 180 10.76435 2.364663 2.853592 67.05974 -50.53058 53.12169 -180 71.40731 180 -7.280212 -8.0495 -12.84293 -2.778958 21.1072 2.575673 8.248088 14.95532 -9.543735 -6.512631 7.664916 10.09717 8.443637 -31.17104 7.451088 22.07405 -9.65733 22.83677 -60.76685 -31.21655 14.02169 2.359524e-10 -69.04979 1.634963e-10 20.22945 0.1447556 31.1611 -19.58704 -44.58007 -2.27896 65.93498 -11.48411 -0.161998 5.03674e-10 -34.52461 1.472362e-09 -4.218706 -14.71912 10.68862
0.6048721 48.09001 0.3129825 -4.634098 -20.18174 -0.6335172 -50.75068 -60.03246 -41.24295 -180 81.88561 180 10.77446 2.347783 2.836433 67.19673 -50.55162 53.1938 -180 71.35956 180 -7.275983 -8.092683 -12.86386 -2.867814 21.07132 2.557942 8.346992 14.95348 -9.575062 -6.367261 7.613658 10.00475 8.621044 -31.17693 7.42626 22.01473 -9.627656 22.90667 -60.87176 -31.22751 14.18553 2.142152e-10 -69.00764 1.502821e-10 20.18904 -0.4250214 30.42312 -19.3641 -44.94653 -2.595112 66.26112 -11.57806 -0.2001267 4.362585e-10 -33.3358 1.335354e-09 -5.265824 -14.57144 10.99728
